<?xml version="1.0" encoding="UTF-8"?>
<svg width="351px" height="63px" viewBox="0 0 351 63" version="1.1" xmlns="http://www.w3.org/2000/svg" xmlns:xlink="http://www.w3.org/1999/xlink">
    <!-- Generator: Sketch 43.1 (39012) - http://www.bohemiancoding.com/sketch -->
    <title>Group 2 Copy 3</title>
    <desc>Created with Sketch.</desc>
    <defs></defs>
    <g id="Page-1" stroke="none" stroke-width="1" fill="none" fill-rule="evenodd">
        <g id="Desktop-HD-Copy-61" transform="translate(-545.000000, -399.000000)" fill="#FFFFFF">
            <g id="Group-10" transform="translate(515.000000, 180.000000)">
                <g id="Group-2-Copy-3" transform="translate(25.000000, 219.000000)">
                    <path d="M136.597186,3.8564361 L136.194374,5.23781139 C135.590153,5.80661583 134.811391,6.26706966 133.858065,6.61918669 L133.092722,6.21289984 C132.985305,6.21289984 132.830895,6.21967122 132.629488,6.23321418 C132.428081,6.24675714 132.273671,6.25352852 132.166254,6.25352852 C131.521752,6.25352852 130.514732,6.02330161 129.145164,5.56284088 L129.145164,5.72535562 L129.306289,5.84724167 L129.749382,6.61918669 L129.910507,6.61918669 L130.031351,6.92390183 C130.635572,7.35727664 131.186076,8.06827152 131.68288,9.0569078 C132.166257,9.99137223 132.448222,10.8513375 132.528785,11.6368293 L133.052441,12.2462596 L133.133003,12.8556899 L133.414971,13.1400907 C133.535816,13.5057506 133.616377,13.8984907 133.656659,14.3183225 C133.844638,14.7787833 134.260873,15.4762354 134.905376,16.4106998 C134.905376,16.8034457 134.996007,17.334999 135.177274,18.0053757 C135.35854,18.6757524 135.455885,19.1869915 135.469312,19.5391086 C135.214197,21.1100922 135.066501,21.8414013 135.026219,21.7330576 L135.187344,21.7330576 L135.026219,22.9112894 L134.462283,23.5207197 L134.462283,23.9879496 L134.301158,23.9879496 L134.019189,24.5973799 L133.414971,24.8817807 C132.918167,25.8839599 132.38109,26.5204696 131.803723,26.7913289 L131.642599,27.0757297 C131.239785,27.3736748 130.789982,27.5700449 130.293179,27.6648456 C129.594968,27.8138182 129.172019,27.9153889 129.024321,27.9695607 C128.634934,28.1185333 127.742043,28.5654444 126.345621,29.3103073 C125.164033,29.418651 124.680664,29.4728221 124.895498,29.4728221 C124.076443,29.4728221 123.009002,29.2561379 121.693143,28.8227631 C120.377284,28.3893883 119.383691,27.9153917 118.712334,27.4007591 L118.712334,27.2382444 C118.202103,27.0486429 117.463622,26.7100739 116.496868,26.2225273 C115.906074,25.4370354 115.610682,24.5228992 115.610682,23.480091 L115.973213,21.7736862 C116.980248,20.1891596 117.688518,19.2005382 118.098046,18.8077922 C118.507573,18.4150463 119.551517,17.7108228 121.229909,16.6951006 L121.350753,16.2481851 L121.954971,15.8012695 C122.156378,15.7877266 122.653174,15.70647 123.445375,15.5574974 C124.103304,15.4491537 124.586674,15.3949827 124.895498,15.3949827 C125.110332,15.3949827 125.405725,15.4220682 125.781684,15.4762401 L126.667871,15.9637843 L126.667871,16.126299 C126.922986,16.491959 127.312367,17.0336694 127.836025,17.7514464 L127.956869,18.6452775 L127.674901,19.2140791 L127.674901,19.6609946 L127.392932,20.1079102 L126.667871,20.5548257 L126.345621,21.7330576 C125.392295,22.5050064 124.512831,23.0060885 123.707203,23.2363189 C123.0627,23.4259204 122.089248,23.5207197 120.786816,23.5207197 C120.075178,23.2634034 119.531387,22.5727227 119.155427,21.4486568 L119.155427,21.286142 L119.719364,20.2704249 C120.175887,19.9318508 120.625689,19.7828805 121.068784,19.8235094 L121.753565,20.1485388 L121.954971,21.286142 C121.807272,21.651802 121.753564,21.9497427 121.793846,22.1799731 C122.277223,22.2612309 122.559188,22.3018592 122.639751,22.3018592 C122.69346,22.3018592 123.002279,22.2612309 123.566219,22.1799731 C123.593073,22.1393442 123.928746,21.9903739 124.573248,21.7330576 L124.573248,21.164256 L123.727343,21.0017412 L123.566219,20.5548257 C123.593073,20.0401931 123.687061,19.2953413 123.848187,18.320248 L124.452405,17.7514464 L124.573248,17.3045309 L124.452405,16.6951006 C123.955601,16.5732139 123.418524,16.5325857 122.841157,16.5732145 L122.116095,17.0201301 L121.954971,17.3045309 L121.350753,17.4670456 C121.216481,17.7243619 120.974797,17.9952171 120.625691,18.2796193 C120.155741,18.6723652 119.880489,18.9161349 119.799927,19.0109357 L119.155427,19.2140791 C118.95402,19.3630517 118.658628,19.7557917 118.269241,20.392311 L117.826148,20.7173404 C117.785866,21.245516 117.490474,21.9632822 116.939961,22.8706607 L117.060805,24.1098356 L117.826148,25.613097 C118.430369,25.7485266 118.967446,25.9922963 119.437396,26.3444133 C120.135607,26.4256711 121.122486,26.6152697 122.398064,26.9132149 L123.123125,26.7913289 C123.687065,26.9809303 124.331558,27.0757297 125.056623,27.0757297 C125.083477,27.0757297 125.190893,27.0486441 125.378872,26.9944723 C125.378872,26.9944723 125.942804,26.8319592 127.070683,26.5069281 C127.500351,26.2902407 127.849451,25.9381289 128.117994,25.4505823 L128.117994,25.1661815 L128.722212,24.7192659 C129.071317,24.0014889 129.359996,23.5478064 129.588258,23.358205 C129.66882,22.965459 129.923932,22.4779197 130.3536,21.8955723 C130.340173,21.624713 130.393881,21.2590585 130.514725,20.7985978 C130.689278,20.1485356 130.783266,19.7964238 130.796694,19.742252 C130.689276,18.9838461 130.635569,18.6588198 130.635569,18.7671635 C130.635569,18.6588198 130.655709,18.4895353 130.695991,18.259305 C130.736272,18.0290746 130.756412,17.8597901 130.756412,17.7514464 C130.756412,17.6431027 130.749699,17.4738182 130.736272,17.2435879 C130.722845,17.0133575 130.716131,16.844073 130.716131,16.7357293 C130.39388,16.126296 129.769528,14.629821 128.843055,12.2462596 L128.399962,11.9618588 L128.399962,11.6368293 C128.279118,11.5013997 128.131422,11.311801 127.956869,11.0680277 C127.836025,10.7565396 127.648048,10.3096285 127.392932,9.7272811 C127.352651,9.63248036 127.151247,9.33453965 126.788714,8.83345003 C126.775287,8.8063641 126.755147,8.75896445 126.728293,8.69124963 C126.701438,8.62353482 126.681298,8.57613516 126.667871,8.54904923 L125.902528,7.8177329 L125.781684,7.04578788 C125.513142,6.38218271 125.070053,5.83370094 124.452405,5.40032614 C123.324526,6.09101724 122.0154,6.70044142 120.524988,7.22861697 C118.860024,7.81096437 117.463623,8.1021337 116.335744,8.1021337 C115.959784,8.1021337 115.389139,7.94639196 114.623793,7.63490382 C113.912155,7.33695864 113.354937,7.20830242 112.952123,7.24893131 L112.589592,6.8629588 C112.13307,6.7546151 111.683267,6.63950164 111.240172,6.51761498 C110.797077,6.39572831 110.394269,6.15873002 110.031736,5.80661299 C110.179435,5.10237892 110.313704,4.63515372 110.434548,4.40492335 C110.622528,4.02572039 110.971628,3.66683726 111.481859,3.32826319 C111.616131,2.86780246 111.918236,2.56986175 112.388186,2.43443212 L112.388186,2.31254606 C112.898417,2.04168681 113.824875,1.90625921 115.167589,1.90625921 C116.376031,1.90625921 117.302489,1.98751577 117.946991,2.15003132 L118.269241,2.43443212 L118.551209,3.0438624 L118.551209,3.49077793 L117.544179,3.65329267 L116.778837,4.38460901 L115.89265,4.50649506 L115.328714,4.10020821 L115.610682,3.32826319 L115.046745,3.20637714 C114.684213,3.50432232 113.945731,3.65329267 112.831279,3.65329267 L112.106218,4.22209427 L112.307624,5.15655402 C112.804428,5.48158513 113.509342,5.8269255 114.422387,6.1925855 C115.48313,6.61241734 116.228325,6.7952446 116.657993,6.74107274 C117.477048,6.64627201 118.685472,6.44313061 120.283301,6.13164247 C121.585733,5.56283803 123.015701,4.98049937 124.573248,4.38460901 C124.653811,4.10020679 124.898853,3.76502349 125.30838,3.37904905 C125.717908,2.99307461 125.969663,2.67820545 126.063653,2.43443212 C126.520175,2.23128768 126.909556,2.09586008 127.231808,2.02814527 L127.392932,1.70311579 L127.956869,1.58122973 L128.399962,1.1343142 C128.869912,1.05305642 129.373422,0.849915024 129.910507,0.524883918 C130.138768,0.538426881 130.464372,0.514727051 130.887326,0.453783719 C131.310281,0.392840387 131.615744,0.362369177 131.803723,0.362369177 C131.588889,0.362369177 132.179674,0.470711254 133.576096,0.687398659 C134.086327,1.13431643 134.569697,1.3780861 135.026219,1.41871499 L135.026219,1.58122973 L135.630437,1.70311579 L135.751281,2.02814527 L136.516624,2.7594616 C136.503196,2.88134827 136.53005,3.24700278 136.597186,3.8564361 L136.597186,3.8564361 Z M135.187344,3.32826319 L134.905376,2.7594616 L134.140033,2.15003132 C133.535812,2.0146017 132.998735,1.77083202 132.528785,1.41871499 L130.796694,1.49997236 C130.2059,1.75728865 129.554693,2.12294316 128.843055,2.59694686 L128.279119,2.7594616 L128.279119,2.88134766 L127.473495,4.10020821 C128.185133,4.20855191 129.239147,4.39815055 130.635569,4.6690098 L130.796694,4.83152454 C130.998101,4.80443862 131.340487,4.83829552 131.823864,4.93309626 C132.414658,5.04143996 132.757045,5.10238238 132.851035,5.11592534 L134.019189,4.83152454 C134.596556,4.35752085 134.985937,3.85643874 135.187344,3.32826319 L135.187344,3.32826319 Z M153.55557,5.84724167 L153.273602,6.00975641 L152.387415,6.00975641 C152.105446,5.92849864 151.971176,5.88787036 151.984604,5.88787036 C151.689207,5.88787036 151.313253,5.99621243 150.85673,6.21289984 C150.333072,6.4431302 149.950404,6.5785578 149.708716,6.61918669 C149.507309,6.99838965 149.211916,7.41144381 148.82253,7.85836159 C148.82253,7.96670529 148.829243,8.1292184 148.84267,8.34590581 C148.856097,8.56259321 148.862811,8.72510633 148.862811,8.83345003 C148.688258,9.2803678 148.433146,9.67310783 148.097468,10.0116819 L147.976624,11.6368293 L147.614094,12.0837448 L147.614094,13.1400907 C147.224707,13.4786647 146.969595,13.8307765 146.848751,14.1964365 L146.889032,14.8058667 C146.660771,15.3340423 146.580209,15.7200109 146.647345,15.9637843 C146.351948,16.3565302 146.137117,16.7086419 146.002846,17.0201301 C145.975991,17.2639034 145.875289,17.7852997 145.700737,18.5843345 C145.539611,19.3021115 145.465763,19.7151657 145.47919,19.8235094 C145.210647,20.0401968 144.995817,20.1891671 144.834691,20.2704249 L145.036097,20.7173404 L144.713847,21.0017412 C144.619857,21.1642568 144.512442,21.489283 144.391598,21.9768297 L143.988786,22.4643739 C143.908223,23.2769517 143.867942,23.6832344 143.867942,23.6832344 L143.545693,24.2723504 C143.545693,25.1797289 143.210019,25.8704096 142.538663,26.3444133 L141.934445,26.5069281 C141.612193,26.8184162 141.162391,27.2111562 140.585025,27.6851599 C140.021085,27.9018473 139.484008,28.0508177 138.973777,28.1320755 C138.67838,27.956017 138.248718,27.9018459 137.684778,27.9695607 L137.362529,27.8476747 L136.637467,27.0757297 L136.637467,26.5069281 L137.241685,26.0600125 L137.523654,26.0600125 L137.805622,26.3444133 L138.530683,26.6694428 C138.799226,26.5475561 139.084548,26.330872 139.386659,26.0193838 C139.688769,25.7078957 139.940524,25.5047543 140.141931,25.4099536 C140.222494,25.1797232 140.32991,24.8276115 140.464181,24.3536078 C140.464181,23.8118892 140.558169,23.0467233 140.746149,22.058087 L140.907274,22.058087 L140.907274,21.7330576 L141.189243,21.164256 L141.189243,20.392311 L141.652476,19.8235094 C141.907592,18.5233849 142.296973,17.6295628 142.820631,17.1420161 C142.847485,16.830528 143.129451,15.8351352 143.666536,14.1558078 C143.69339,13.8849485 143.773952,13.4922085 143.908223,12.9775759 C144.190193,12.5577441 144.55272,11.9076916 144.995816,11.027399 L144.874972,10.4585974 L145.036097,9.7272811 L145.600034,9.56476636 L145.761158,9.28036557 L145.761158,8.71156397 L146.043127,8.54904923 L146.48622,7.49270342 C146.821898,7.0999575 147.332122,6.59210401 148.016906,5.96912773 L148.50028,6.00975641 L148.862811,5.56284088 L149.144779,5.56284088 C149.413322,5.27843866 149.889978,5.04821174 150.574762,4.87215323 C151.366962,4.68255175 151.877186,4.52003863 152.105447,4.38460901 C152.548543,4.49295271 152.884216,4.53358099 153.112477,4.50649506 L153.55557,5.11592534 L153.55557,5.84724167 Z M159.154657,19.742252 L158.993532,19.9047667 L158.953251,20.3516823 L159.114376,20.7579691 L158.953251,21.2455133 L159.033813,21.8549436 C158.698135,22.5862636 158.362462,23.073803 158.026783,23.3175763 C157.999929,23.3175763 157.899227,23.3378904 157.724674,23.3785193 C157.550121,23.4191482 157.449419,23.4394623 157.422565,23.4394623 C157.395711,23.4394623 157.100318,23.3988341 156.536379,23.3175763 L156.25441,23.1550615 C155.932159,23.1956904 155.210462,23.1110482 154.089296,22.9011323 C152.96813,22.6912163 152.212866,22.5050034 151.823479,22.3424878 L151.319964,22.5862599 C151.279682,22.6539748 151.14877,23.0128579 150.927222,23.6629201 C150.705674,24.3129823 150.594902,24.6650941 150.594902,24.7192659 C150.594902,24.8411526 150.601616,25.0172085 150.615043,25.2474388 C150.62847,25.4776692 150.635183,25.6537251 150.635183,25.7756117 L151.239401,27.035101 C151.615361,27.1705306 151.836905,27.2382444 151.904041,27.2382444 C151.944323,27.2382444 151.984603,27.231473 152.024885,27.2179301 C152.065166,27.2043871 152.105447,27.1976157 152.145728,27.1976157 L153.354164,27.3195018 C153.662988,27.238244 154.012089,27.0757309 154.401475,26.8319575 C154.884852,26.5204694 155.207099,26.3308708 155.368224,26.263156 L155.650193,26.2225273 C155.959017,25.9922969 156.200701,25.707899 156.375254,25.3693249 L157.221159,25.1255528 L157.382284,25.5724683 C157.315148,25.9110424 156.616948,26.7506935 155.287662,28.0914468 C154.844566,28.3081342 154.220214,28.4503332 153.414586,28.518048 C152.528395,28.5857628 151.904043,28.6873335 151.54151,28.8227631 L150.635183,28.6602484 L150.51434,28.5383623 L149.789278,28.3758476 C149.104494,27.9153868 148.460002,27.1299068 147.855781,26.0193838 C147.828926,25.6943527 147.761792,25.3016127 147.654375,24.841152 C147.72151,24.5973786 147.815499,24.0895252 147.936343,23.3175763 L148.097468,23.1550615 L148.016906,23.0331755 L148.298874,22.7487747 L148.459999,22.1393444 C148.68826,21.9903718 148.876237,21.6924311 149.023935,21.2455133 L149.023935,19.9047667 L149.346185,19.7828807 L149.628153,18.7265349 C150.608334,17.575383 151.648921,16.8305312 152.749946,16.4919572 C152.817082,16.4919572 152.917784,16.4987286 153.052055,16.5122715 C153.186327,16.5258145 153.287029,16.5325859 153.354164,16.5325859 C153.743551,16.4242422 153.931528,16.3700711 153.918101,16.3700711 L154.401475,16.5732145 C154.562601,16.5461286 154.790859,16.4784148 155.086256,16.3700711 C155.287663,16.3836141 155.583055,16.4580993 155.972442,16.5935289 C156.361829,16.7289585 156.657221,16.8034437 156.858628,16.8169867 L157.26144,17.2639022 L157.664252,17.4264169 L157.865658,17.7108177 L158.429595,17.9545898 L158.751845,18.320248 C158.81898,18.4692206 158.886115,18.7062189 158.953251,19.03125 C159.020386,19.3562811 159.087521,19.5932794 159.154657,19.742252 L159.154657,19.742252 Z M156.858628,20.2297962 L156.697504,20.0672815 C156.697504,19.5797348 156.684077,19.2140803 156.657222,18.970307 C156.496097,18.6452759 155.985873,18.1441938 155.126537,17.4670456 C154.616306,17.4670456 153.958386,17.6295587 153.152758,17.9545898 L152.951352,18.2796193 L152.588821,18.5233914 L152.427697,18.8890496 L152.306853,19.0109357 L152.306853,19.3359651 L152.065166,19.5391086 C151.984603,19.7016241 151.917468,19.9724793 151.86376,20.3516823 L151.702635,20.3516823 L151.662354,20.7173404 L151.783198,21.2048847 C152.61568,21.6382595 154.106069,21.9091147 156.25441,22.0174584 C156.361828,21.5976265 156.509524,21.3403141 156.697504,21.2455133 L156.858628,20.2297962 Z M171.661969,19.742252 L171.500844,19.9047667 L171.460563,20.3516823 L171.621687,20.7579691 L171.460563,21.2455133 L171.541125,21.8549436 C171.205447,22.5862636 170.869773,23.073803 170.534095,23.3175763 C170.507241,23.3175763 170.406539,23.3378904 170.231986,23.3785193 C170.057433,23.4191482 169.956731,23.4394623 169.929877,23.4394623 C169.903023,23.4394623 169.60763,23.3988341 169.043691,23.3175763 L168.761722,23.1550615 C168.439471,23.1956904 167.717774,23.1110482 166.596608,22.9011323 C165.475442,22.6912163 164.720177,22.5050034 164.330791,22.3424878 L163.827276,22.5862599 C163.786994,22.6539748 163.656082,23.0128579 163.434534,23.6629201 C163.212986,24.3129823 163.102214,24.6650941 163.102214,24.7192659 C163.102214,24.8411526 163.108928,25.0172085 163.122355,25.2474388 C163.135782,25.4776692 163.142495,25.6537251 163.142495,25.7756117 L163.746713,27.035101 C164.122673,27.1705306 164.344217,27.2382444 164.411353,27.2382444 C164.451634,27.2382444 164.491915,27.231473 164.532197,27.2179301 C164.572478,27.2043871 164.612759,27.1976157 164.65304,27.1976157 L165.861476,27.3195018 C166.1703,27.238244 166.5194,27.0757309 166.908787,26.8319575 C167.392164,26.5204694 167.71441,26.3308708 167.875536,26.263156 L168.157504,26.2225273 C168.466328,25.9922969 168.708013,25.707899 168.882566,25.3693249 L169.728471,25.1255528 L169.889596,25.5724683 C169.82246,25.9110424 169.12426,26.7506935 167.794974,28.0914468 C167.351878,28.3081342 166.727526,28.4503332 165.921898,28.518048 C165.035707,28.5857628 164.411355,28.6873335 164.048822,28.8227631 L163.142495,28.6602484 L163.021652,28.5383623 L162.29659,28.3758476 C161.611806,27.9153868 160.967314,27.1299068 160.363093,26.0193838 C160.336238,25.6943527 160.269104,25.3016127 160.161687,24.841152 C160.228822,24.5973786 160.322811,24.0895252 160.443655,23.3175763 L160.60478,23.1550615 L160.524217,23.0331755 L160.806186,22.7487747 L160.967311,22.1393444 C161.195572,21.9903718 161.383549,21.6924311 161.531247,21.2455133 L161.531247,19.9047667 L161.853497,19.7828807 L162.135465,18.7265349 C163.115646,17.575383 164.156233,16.8305312 165.257258,16.4919572 C165.324394,16.4919572 165.425096,16.4987286 165.559367,16.5122715 C165.693638,16.5258145 165.79434,16.5325859 165.861476,16.5325859 C166.250863,16.4242422 166.43884,16.3700711 166.425413,16.3700711 L166.908787,16.5732145 C167.069913,16.5461286 167.298171,16.4784148 167.593568,16.3700711 C167.794975,16.3836141 168.090367,16.4580993 168.479754,16.5935289 C168.869141,16.7289585 169.164533,16.8034437 169.36594,16.8169867 L169.768752,17.2639022 L170.171564,17.4264169 L170.37297,17.7108177 L170.936907,17.9545898 L171.259157,18.320248 C171.326292,18.4692206 171.393427,18.7062189 171.460563,19.03125 C171.527698,19.3562811 171.594833,19.5932794 171.661969,19.742252 L171.661969,19.742252 Z M169.36594,20.2297962 L169.204816,20.0672815 C169.204816,19.5797348 169.191389,19.2140803 169.164534,18.970307 C169.003409,18.6452759 168.493185,18.1441938 167.633849,17.4670456 C167.123618,17.4670456 166.465698,17.6295587 165.66007,17.9545898 L165.458664,18.2796193 L165.096133,18.5233914 L164.935009,18.8890496 L164.814165,19.0109357 L164.814165,19.3359651 L164.572478,19.5391086 C164.491915,19.7016241 164.42478,19.9724793 164.371072,20.3516823 L164.209947,20.3516823 L164.169666,20.7173404 L164.290509,21.2048847 C165.122992,21.6382595 166.613381,21.9091147 168.761722,22.0174584 C168.869139,21.5976265 169.016836,21.3403141 169.204816,21.2455133 L169.36594,20.2297962 Z M188.982884,20.4735683 C188.821758,21.1507165 188.653921,21.8210831 188.479369,22.4846882 C188.224253,23.283723 187.895293,23.8796045 187.492479,24.2723504 L187.492479,24.5973799 C187.223937,24.895325 186.968825,25.233894 186.727137,25.613097 L186.727137,25.8974978 C186.646574,25.9787556 186.498878,26.236068 186.284043,26.6694428 L186.002075,26.7913289 L185.599263,27.1976157 L185.115889,27.4007591 L184.995045,27.5226452 C184.323688,27.8747622 183.524786,28.0237326 182.598314,27.9695607 L182.316345,28.1320755 C182.047803,28.0101888 181.658422,27.8070474 181.148191,27.5226452 L181.148191,27.4007591 L180.705098,26.3444133 L181.148191,26.2225273 L181.430159,25.8974978 L182.034377,26.2225273 L182.155221,26.6694428 L182.719157,26.7913289 C183.148826,26.7913289 183.645622,26.6017302 184.209562,26.2225273 L184.652655,25.4505823 L184.652655,25.3286962 L185.397857,25.0036667 L185.720107,24.5973799 L185.84095,23.6832344 L186.002075,23.6832344 L186.002075,22.7894034 C185.706678,22.3424856 185.599263,21.5705483 185.679825,20.4735683 L185.558982,20.4735683 L185.558982,19.864138 L185.397857,19.742252 L185.277013,19.2953365 L184.451249,19.4172225 C183.779892,20.2839721 183.068265,21.1642515 182.316345,22.058087 C182.06123,22.1393448 181.819545,22.2747724 181.591284,22.4643739 L181.148191,23.0738042 L181.148191,23.2363189 L180.543973,23.6426058 C180.436556,23.8728361 180.248579,24.191091 179.980036,24.5973799 L179.818911,24.5973799 L179.657786,24.8817807 L179.536943,24.8817807 C179.563797,25.0713821 179.523516,25.3422373 179.416099,25.6943544 C179.268401,26.1548151 179.187839,26.4256703 179.174412,26.5069281 C179.040141,26.6694436 178.811883,26.9132133 178.489632,27.2382444 L178.489632,27.5226452 L178.368788,27.5226452 L178.368788,27.8476747 C178.073391,27.9831043 177.811566,28.369073 177.583305,29.0055922 C177.435606,29.45251 177.294623,29.9061924 177.160352,30.3666532 C177.012654,30.6375124 176.824677,31.0708807 176.596415,31.6667711 L176.435291,31.8292858 C176.233884,32.3710043 176.066047,32.9736571 175.931776,33.6372623 L175.448401,34.2466926 C175.40812,34.7884111 175.213429,35.3368929 174.864324,35.8921543 C174.501791,36.4880447 174.078843,36.8740133 173.595466,37.0500719 C173.434341,37.2667593 173.192656,37.5647 172.870405,37.9439029 L172.306468,38.2283037 L171.863375,38.7971053 C171.393425,39.1356794 170.748932,39.3320494 169.929877,39.3862213 C168.761717,39.467479 168.083656,39.5284215 167.895677,39.5690503 L167.734552,39.4065356 L167.291459,39.4065356 C165.841328,38.7835593 165.008859,37.9439082 164.794024,36.8875571 L164.350931,36.4406416 L164.350931,36.1562408 L164.230088,36.1562408 L164.068963,35.7093253 L164.230088,35.099895 C164.632902,34.6529772 165.169979,34.3550365 165.841336,34.2060639 L165.841336,34.0841778 L166.284429,34.0841778 L166.284429,33.9216631 C166.70067,33.7591476 167.284741,33.6304913 168.036661,33.5356906 C168.869143,33.4138039 169.459928,33.2986905 169.809034,33.1903468 L171.138313,33.4747476 L170.816063,33.677891 L170.091002,33.6372623 L169.527065,34.0841778 L169.083972,34.2060639 L168.721441,34.7342368 C168.184356,34.8154946 167.412307,35.0457215 166.405272,35.4249245 L166.405272,35.7093253 L165.801054,36.1156121 L165.680211,36.6031563 C166.163588,37.090703 166.512688,37.4699003 166.727522,37.7407595 C167.184044,37.8897321 167.674127,38.0928735 168.197786,38.3501898 L168.802004,38.3501898 C168.775149,38.3501898 169.513631,38.1605912 171.017469,37.7813882 L171.259157,37.1719579 L171.823093,36.6031563 C172.078209,35.8989223 172.534725,35.1405277 173.192654,34.32795 L173.112092,33.677891 C173.232936,33.0955436 173.447767,32.5064336 173.756591,31.9105432 L173.756591,31.3417416 L174.239965,30.4885392 L174.239965,30.0416237 L174.40109,29.9197376 C174.58907,29.2832184 174.683058,28.8363073 174.683058,28.578991 L175.327558,27.7257886 L175.40812,27.3601305 L175.73037,26.9538436 L175.73037,26.6694428 L175.569245,26.6694428 C175.73037,26.222525 175.918347,25.5318443 176.133182,24.5973799 L176.254025,24.5973799 L176.254025,24.4348651 L176.515853,24.191093 L176.515853,23.7238631 C176.824677,23.412375 177.012654,23.1415198 177.07979,22.9112894 L176.918665,22.7894034 L177.07979,22.6268886 L176.918665,22.4643739 C177.106645,22.2341435 177.240914,21.9903739 177.321477,21.7330576 L177.321477,21.6111715 L177.160352,21.6111715 L177.160352,21.164256 L177.321477,20.8392265 L177.44232,20.8392265 L177.281196,20.2704249 C176.475568,20.4329404 176.012339,20.514197 175.891494,20.514197 C175.86464,20.514197 175.448405,20.4735687 174.642777,20.392311 L174.07884,20.5548257 L173.031529,20.392311 L173.031529,20.2704249 L172.588436,20.2704249 L172.145343,19.8235094 L172.306468,19.5391086 L173.192654,19.2140791 C173.340353,19.3224228 174.119115,19.3765938 175.528964,19.3765938 L176.435291,18.9296783 L176.878384,18.9296783 L177.160352,18.6452775 L177.603445,18.6452775 L178.368788,18.198362 L178.489632,18.0358472 L178.7716,17.9139612 C178.86559,17.4805864 179.066994,16.8305339 179.375818,15.9637843 C179.496662,15.8554406 180.38284,15.8012695 182.034377,15.8012695 L182.155221,15.9637843 L182.316345,16.8576153 L182.034377,17.1420161 C182.11494,17.7785354 181.967244,18.3744168 181.591284,18.9296783 L181.430159,18.9296783 L181.430159,19.092193 L181.269034,19.092193 C181.282461,19.2140797 181.265678,19.3901356 181.218683,19.6203659 C181.171688,19.8505963 181.148191,20.0131094 181.148191,20.1079102 C181.148191,20.162082 181.188471,20.4329372 181.269034,20.9204839 L180.78566,21.9768297 L181.712127,21.4892855 C181.994097,21.2184262 182.323057,20.7850579 182.699017,20.1891675 C183.115258,19.5120194 183.417364,19.0651083 183.605344,18.8484209 C183.900741,18.6181905 184.350543,18.3202498 184.954764,17.9545898 C186.082643,17.4535002 186.915113,17.2503588 187.452198,17.3451596 L188.17726,17.7920751 L188.17726,17.9545898 L188.338384,18.1171046 L188.338384,18.2389906 L188.499509,18.2389906 C188.633781,18.4015062 188.700915,18.9973876 188.700915,20.0266528 L188.821759,20.1891675 L188.821759,20.3110536 L188.982884,20.4735683 Z M219.11322,17.3045309 L218.952095,17.5889317 L218.670126,17.7514464 L218.670126,17.9139612 L217.501972,18.0358472 L217.340847,18.3608767 L217.340847,18.7671635 L217.220003,18.9296783 L217.220003,19.3765938 L217.058878,19.3765938 L217.058878,19.5391086 L216.817191,19.8235094 L216.736629,20.1891675 L216.414379,20.4329396 L216.535223,20.7173404 C216.414379,20.9340278 216.246542,21.4215672 216.031708,22.1799731 L215.42749,22.9112894 L215.588615,22.9112894 L215.588615,23.0738042 C215.145519,23.3717494 214.796419,23.6764614 214.541304,23.9879496 L214.460741,24.2317217 L214.541304,24.4348651 L214.380179,25.7756117 L214.259335,25.7756117 L214.259335,26.0600125 L213.977367,26.5069281 L214.09821,26.7913289 L214.541304,26.9132149 C214.890409,26.520469 215.4342,26.1819 216.172692,25.8974978 L216.414379,26.3444133 L216.031708,27.1163583 C215.440914,27.4955613 214.944118,27.9831006 214.541304,28.578991 C213.735676,28.8092214 213.198598,28.9040207 212.930056,28.8633918 L212.930056,28.7415057 L212.486963,28.7415057 C212.231847,28.4300176 211.936454,28.1727052 211.600776,27.9695607 C211.62763,27.6580726 211.58735,27.2247043 211.479933,26.6694428 L211.157683,26.3444133 L211.036839,26.3444133 C210.419191,26.8725889 210.070091,27.2653289 209.989528,27.5226452 L209.264467,27.6851599 L208.982498,28.1320755 L208.136593,28.457105 L207.633078,28.2945902 L207.149704,28.3758476 C206.6529,28.0643594 206.223238,27.8883036 205.860705,27.8476747 L205.296769,27.4007591 C204.893955,26.4798377 204.692551,25.8162425 204.692551,25.4099536 C204.692551,25.1932662 204.746258,24.922411 204.853676,24.5973799 L204.974519,24.5973799 C205.041655,24.4077784 205.135643,24.062438 205.256488,23.5613484 L205.135644,23.2363189 L205.135644,23.0738042 C205.135644,22.9383745 205.219562,22.7420045 205.387401,22.4846882 C205.555241,22.2273719 205.645872,22.0310019 205.659299,21.8955723 C206.464927,21.3267679 206.948297,20.4871168 207.109423,19.3765938 C207.391392,19.1869923 207.612937,18.983851 207.774062,18.7671635 C208.257439,18.604648 208.606539,18.4692204 208.821374,18.3608767 L208.982498,18.3608767 C209.277895,18.0087597 209.613569,17.710819 209.989528,17.4670456 L210.150653,17.1420161 L211.479933,16.6951006 L212.648087,16.8576153 L213.09118,17.1420161 L213.655117,17.1420161 L214.259335,16.5732145 L214.823272,16.5732145 L215.588615,16.8576153 L216.172692,16.6951006 L216.494942,16.8576153 L216.615785,17.1420161 L217.663096,17.0201301 L218.10619,16.6951006 L218.388158,16.8576153 L218.831251,16.6951006 C218.952095,16.8169873 219.046084,17.0201287 219.11322,17.3045309 L219.11322,17.3045309 Z M214.541304,17.9139612 L213.655117,17.5889317 C213.118032,17.7379043 212.634662,17.7920753 212.204994,17.7514464 L211.157683,18.198362 L210.593746,18.7671635 C210.553465,18.983851 210.315137,19.6339034 209.878755,20.7173404 C209.442373,21.8007775 209.183905,22.3695734 209.103342,22.4237452 L209.02278,22.8706607 L208.619968,23.2363189 L208.539405,23.5207197 L208.619968,23.8051205 L208.176874,24.4348651 L208.176874,24.963038 L207.935187,25.2068101 L207.935187,25.613097 L207.774062,25.8974978 L207.774062,26.0600125 L207.35111,26.2225273 L207.35111,26.7913289 L207.471953,26.9538436 L208.096312,27.2382444 C208.418563,27.1299007 208.901933,26.83196 209.546435,26.3444133 L209.70756,26.3444133 L210.150653,26.0600125 C210.298352,25.8433251 210.540036,25.5453844 210.875715,25.1661815 L210.875715,25.0442954 L211.157683,24.8817807 C211.45308,24.3400621 211.896169,23.5478107 212.486963,22.5050026 L212.486963,22.3424878 L212.930056,21.8955723 C212.970337,21.4486545 213.144887,20.9611152 213.453711,20.4329396 C213.426857,20.3381389 213.467138,20.0808265 213.574555,19.6609946 L213.896804,19.5391086 L213.896804,19.3765938 L213.816242,19.2140791 C213.896805,19.0244776 214.044501,18.7400797 214.259335,18.3608767 L214.380179,18.3608767 L214.541304,17.9139612 Z M234.057544,18.2796193 L233.9367,18.4421341 L233.9367,19.1937647 L233.775576,19.3562795 L233.453326,20.1079102 L233.57417,20.392311 L233.413045,20.5548257 C233.372763,20.8663138 233.272061,21.2996821 233.110936,21.8549436 L233.191498,22.058087 C232.922955,22.423747 232.607423,22.9722288 232.24489,23.7035488 C231.86893,24.5025836 231.680953,25.0646081 231.680953,25.3896392 L231.378844,25.8365548 L231.459407,26.4256707 C232.0502,25.9922959 232.493289,25.565699 232.788686,25.1458671 L233.312342,24.9224093 L233.9367,25.0849241 C233.882992,25.3693263 233.634594,25.7756091 233.191498,26.3037846 C232.681267,26.913218 232.352307,27.3669004 232.204609,27.6648456 L231.92264,27.8476747 L231.92264,27.9695607 L230.935751,28.5993054 C230.492656,28.5586765 229.982432,28.3081354 229.405066,27.8476747 C229.33793,27.725788 229.18352,27.5700463 228.941832,27.3804448 L228.740426,26.9335293 L228.740426,26.4662994 L228.579301,26.1818986 L228.700145,25.8365548 C228.67329,25.5386096 228.659863,25.3896392 228.659863,25.3896392 C228.659863,24.8208348 228.945186,24.0184263 229.515839,22.9823896 C230.086492,21.946353 230.351674,21.028831 230.311393,20.2297962 C230.579935,19.7422496 230.774626,19.1463681 230.89547,18.4421341 L230.472517,18.2796193 L230.311393,18.4421341 L230.311393,18.5640201 L229.405066,19.1937647 L229.405066,19.3562795 L228.820988,19.4781655 L228.820988,19.6406803 C228.377893,19.7896529 228.075787,19.9860229 227.914661,20.2297962 L227.914661,20.5548257 C227.740109,20.6767124 227.384295,20.7782831 226.84721,20.8595408 L226.84721,21.1439416 L226.565241,21.1439416 L226.424257,21.3064564 L226.263132,21.3064564 L226.102007,21.5908572 L226.102007,21.936201 L225.658914,22.058087 L225.658914,22.3424878 L225.437368,22.8097177 L225.397086,23.5207197 C225.222534,23.778036 225.06141,24.1944759 224.913712,24.7700518 C224.766014,25.3456277 224.611604,25.7620676 224.450478,26.0193838 C224.195363,26.1818994 223.933538,26.4730687 223.664995,26.8929006 C223.356171,27.3804472 223.1212,27.6987021 222.960074,27.8476747 C222.476697,27.9560184 221.738216,28.1185315 220.744608,28.3352189 L220.241093,28.1320755 L219.536172,28.3352189 L218.770829,27.807046 L218.428439,27.0147866 L218.589564,26.3037846 L219.052798,26.1412699 C219.469039,26.3444143 219.811426,26.534013 220.079968,26.7100715 L220.82517,26.5881854 L221.328685,26.263156 L221.449529,25.3896392 L221.610654,25.2677532 C221.597227,24.7802065 221.650934,24.3468382 221.771779,23.9676352 C221.973186,23.5884323 222.261865,23.0060936 222.637824,22.2206018 C222.772096,21.5705396 223.074202,20.615775 223.544151,19.3562795 L223.423308,18.8890496 L223.544151,18.5640201 L223.262183,18.2796193 L222.798949,18.4421341 L222.798949,18.5640201 L222.194731,18.7265349 L221.771779,19.0109357 C221.167558,19.1057364 220.657334,19.2208499 220.241093,19.3562795 L219.495891,19.0109357 L219.334766,18.5640201 L219.495891,18.2796193 C220.919167,18.3067053 222.422983,17.8462514 224.007385,16.898244 L224.329635,16.898244 L225.316524,16.187242 L225.820039,16.1059847 L226.263132,16.3091281 C226.853926,16.9185614 227.102324,17.4196435 227.008334,17.8123894 L226.726366,17.9749042 L226.726366,18.2796193 L226.424257,18.7265349 C226.451111,18.8348786 226.424257,19.0312486 226.343695,19.3156508 L226.424257,19.6406803 L226.726366,19.803195 C227.236597,19.6271365 227.787101,19.3224244 228.377895,18.8890496 L228.377895,18.7265349 L228.53902,18.7265349 L228.941832,18.4421341 L229.123097,18.4421341 L229.56619,18.0967902 L229.727315,17.8123894 L230.311393,17.6905034 L230.311393,17.5279886 C230.714206,17.3113012 231.07002,17.1555595 231.378844,17.0607588 L231.499688,16.898244 L231.842078,16.898244 C232.244892,16.7357285 232.546998,16.5393585 232.748405,16.3091281 L233.191498,16.3091281 L233.312342,16.6138432 L233.493607,16.6138432 C233.721868,16.8982455 233.909845,17.2977569 234.057544,17.8123894 L234.057544,18.2796193 Z M259.978495,7.28955999 L259.535401,8.18339107 L259.092308,8.50842055 L258.81034,8.95533608 L258.206122,9.36162294 L257.521342,8.9147074 L257.521342,8.34590581 C257.011111,8.11567544 256.198781,7.83127749 255.084329,7.49270342 C254.265274,7.5739612 253.499939,7.88544467 252.788301,8.42716318 C252.519758,8.88762391 252.398916,9.21265014 252.42577,9.40225162 L252.184083,9.52413768 C252.063239,9.88979767 252.009531,10.0929391 252.022958,10.133568 L251.74099,10.133568 L251.579865,11.027399 L251.015928,11.7587154 L251.177053,11.8806014 C250.895083,12.2327184 250.693679,12.8285999 250.572835,13.6682636 L250.73396,13.9526644 L250.572835,14.2776938 L250.572835,14.3995799 C250.492272,14.4537517 250.260658,14.8701916 249.877984,15.648912 C249.495311,16.4276323 249.283837,16.911786 249.243555,17.1013875 L248.961587,17.3857883 L248.639337,18.2389906 L248.679619,18.8890496 L248.357369,19.1734504 L248.236525,19.6203659 L248.05526,19.6203659 L247.330199,20.514197 C247.1825,21.7736925 246.927388,22.6539719 246.564856,23.1550615 L246.564856,23.3175763 L246.162044,23.6019771 L246.162044,24.6786372 C245.893501,25.0307543 245.530974,25.5995502 245.074451,26.385042 L245.275857,26.9132149 L245.839794,27.3195018 L246.887105,27.035101 L246.887105,26.9132149 C247.195929,26.7642423 247.491322,26.5204727 247.773292,26.1818986 C248.122397,25.7756097 248.370795,25.5182973 248.518494,25.4099536 L248.679619,24.963038 C248.961588,24.624464 249.444958,24.1301532 250.129742,23.480091 C250.210305,23.3446614 250.304293,23.14152 250.41171,22.8706607 L250.73396,22.5862599 L251.459021,22.5862599 C251.579866,22.9519199 251.620146,23.2498607 251.579865,23.480091 L251.015928,23.9473209 C250.77424,24.3129809 250.46542,24.8817768 250.089461,25.6537257 L249.525524,25.8568691 L249.40468,26.4662994 L248.961587,26.5881854 C248.733326,26.8184158 248.58563,27.0215572 248.518494,27.1976157 C248.290233,27.3736742 247.934419,27.6174439 247.451042,27.928932 C247.195927,28.0101898 246.819973,28.1997885 246.323169,28.4977336 C245.920355,28.5789914 245.692097,28.6196197 245.638388,28.6196197 C245.557825,28.6196197 245.406772,28.6026912 245.185225,28.5688338 C244.963677,28.5349764 244.792484,28.5248194 244.671639,28.5383623 L243.946578,28.1320755 L243.543766,27.6445313 L243.422922,26.7913289 C242.711284,27.2653326 242.147353,27.6987009 241.731112,28.0914468 L241.006051,28.0914468 L240.280989,28.3758476 C239.461934,27.9424728 238.663031,27.7935024 237.884258,27.928932 L237.763414,27.6445313 L236.877228,27.1976157 L236.877228,26.5881854 L236.434135,26.0193838 L236.434135,25.8568691 C236.474416,24.9224047 236.581831,23.8728408 236.756384,22.708146 L236.635541,22.3018592 L236.95779,21.9768297 L236.95779,21.6924289 L237.28004,21.5299141 L237.400883,20.9611125 L238.005101,20.514197 C238.273644,19.8912207 238.582463,19.3224248 238.931569,18.8077922 C239.200111,18.5911048 239.609633,18.2931641 240.160145,17.9139612 L240.442114,17.3857883 L241.167175,17.3857883 L241.610268,17.1013875 C242.107072,16.9659578 242.899261,16.8711585 243.986859,16.8169867 L244.067422,17.3045309 L244.550796,17.3857883 L244.550796,17.548303 L244.711921,17.548303 L244.832764,17.8327038 L244.993889,17.8327038 L244.993889,17.9952185 C244.779055,18.1441911 244.423241,18.2051335 243.926437,18.1780476 C243.147664,18.1374187 242.764996,18.1171046 242.778423,18.1171046 C242.429318,18.6452801 241.919094,19.2005333 241.247738,19.7828807 L241.247738,20.2297962 L241.086613,20.6360831 L240.64352,20.7985978 L240.764363,20.9611125 L240.764363,21.0829986 C240.683801,21.3944867 240.64352,21.5434571 240.64352,21.5299141 L240.482395,21.5299141 C240.495822,21.570543 240.442114,21.8278555 240.32127,22.3018592 L240.039302,22.4237452 L240.200427,23.1144329 L240.079583,23.7238631 L239.757333,24.1098356 C239.529072,24.692183 239.414943,25.3016072 239.414943,25.9381265 L239.676771,26.7507002 L239.837896,26.9132149 L240.280989,27.035101 L240.562957,26.9132149 C240.804646,26.9132149 240.992623,26.8996722 241.126894,26.8725862 L241.489425,26.6694428 C241.690832,26.6829858 242.039932,26.5137013 242.536736,26.1615842 C243.167811,25.7011235 243.503485,25.4641252 243.543766,25.4505823 C243.866017,24.8546919 244.094275,24.143697 244.228546,23.3175763 L244.510515,22.8706607 C244.537369,22.4643719 244.631357,21.8549477 244.792483,21.0423699 L245.275857,20.514197 L245.114733,20.0672815 C245.114733,19.2953326 245.262429,18.6994512 245.557826,18.2796193 L245.557826,17.9952185 L245.718951,17.9952185 C245.974066,17.3857852 246.068055,16.9388741 246.000919,16.6544719 C246.256035,16.3565267 246.430585,15.9908722 246.524575,15.5574974 L247.088511,15.0496389 L247.249636,14.1964365 L247.692729,13.5870062 C247.639021,13.1536314 247.612167,12.8421479 247.612167,12.6525464 C247.612167,12.3546013 247.692729,11.9618612 247.853854,11.4743146 C248.135824,11.1357405 248.43793,10.6346584 248.760181,9.97105321 C249.109287,9.22619026 249.377825,8.72510816 249.565805,8.46779186 C249.861202,8.27819038 250.26401,7.93962139 250.774241,7.45207473 L251.378459,7.33018868 L251.902114,6.82233011 L252.42577,6.8629588 L252.868863,6.49730063 C253.097124,6.52438656 253.436155,6.48375828 253.885963,6.37541458 C254.335772,6.26707088 254.654662,6.21289984 254.842642,6.21289984 C255.863104,6.21289984 256.742568,6.37541295 257.48106,6.70044406 C258.340397,6.59210036 258.98489,6.49730104 259.414558,6.41604326 L259.857651,6.8629588 L259.978495,7.28955999 Z M75.0998814,49.0786778 L80.803699,49.0786778 L80.803699,49.4524617 C80.803699,49.8966709 80.6882274,50.3869188 80.4572807,50.9232201 C80.226334,51.4595214 79.9014023,52.0201917 79.4824757,52.6052476 C78.6768477,53.6778503 77.5892663,54.4904159 76.2196987,55.0429688 C74.8501311,55.5955216 73.2039893,55.8717939 71.2812239,55.8717939 C69.3477167,55.8717939 67.6505526,55.5657276 66.1896805,54.9535856 C64.7288084,54.3414437 63.5418676,53.4719986 62.6288226,52.3452241 C61.7802278,51.2076152 61.1223081,49.9102188 60.6550439,48.452996 C60.1877797,46.9957732 59.9541511,45.4166875 59.9541511,43.7156913 C59.9541511,41.9821921 60.1824089,40.3949807 60.6389314,38.9540094 C61.095454,37.5130382 61.7587444,36.2291846 62.6288226,35.1024101 C63.5418676,33.98647 64.7288084,33.1224419 66.1896805,32.5103 C67.6505526,31.8981581 69.3477167,31.5920917 71.2812239,31.5920917 C75.0837879,31.5920917 77.8121405,32.6375927 79.4663633,34.7286262 C80.3579249,35.8337319 80.803699,36.9279869 80.803699,38.0114239 L80.803699,38.3689564 L75.0998814,38.3689564 L75.0998814,38.0114239 C75.0998814,36.0504029 73.8914576,35.0699071 71.4745736,35.0699071 C70.583012,35.0699071 69.7693399,35.3055512 69.033533,35.7768463 C68.2977261,36.2481414 67.650548,36.9063195 67.0919793,37.7514004 C66.6945362,38.4339657 66.380346,39.2817424 66.1493993,40.294756 C65.9184526,41.3077697 65.802981,42.44807 65.802981,43.7156913 C65.802981,44.9399752 65.9238234,46.0694413 66.1655118,47.1041237 C66.4072002,48.138806 66.7160196,49.0028341 67.0919793,49.6962338 C67.650548,50.552149 68.2977261,51.2157443 69.033533,51.6870394 C69.7693399,52.1583345 70.583012,52.3939785 71.4745736,52.3939785 C72.3876187,52.3939785 73.2469423,52.1827114 74.0525703,51.760171 C74.7507812,51.4134711 75.0998814,50.6442424 75.0998814,49.4524617 L75.0998814,49.0786778 Z M89.0855133,55.2379864 L83.3978081,55.2379864 L83.3978081,32.2258992 L103.763982,32.2258992 L103.763982,55.2379864 L98.0762766,55.2379864 L98.0762766,35.6874631 L89.0855133,35.6874631 L89.0855133,55.2379864 Z M119.586436,46.0071492 L111.836334,55.2379864 L105.488017,55.2379864 L113.495919,45.7146226 C112.550649,45.4979352 111.715494,45.1999945 110.990429,44.8207916 C110.265363,44.4415886 109.661151,44.0082203 109.177775,43.5206736 C108.533272,42.8056052 108.02842,42.0417936 107.663202,41.2292158 C107.297984,40.416638 107.115377,39.5878211 107.115377,38.7427403 C107.115377,36.8142224 107.824319,35.1890912 109.242225,33.8672981 C110.456037,32.7730267 112.287471,32.2258992 114.73658,32.2258992 L126.49869,32.2258992 L126.49869,55.2379864 L120.827097,55.2379864 L120.827097,46.0071492 L119.586436,46.0071492 Z M120.827097,42.6593455 L120.827097,35.5249484 L115.816116,35.5249484 C114.000768,35.5249484 113.093107,36.6625402 113.093107,38.937758 C113.093107,41.4188287 114.070588,42.6593455 116.025578,42.6593455 L120.827097,42.6593455 Z M164.105216,62.6324071 L158.530298,62.6324071 L158.530298,55.2379864 L130.285122,55.2379864 L130.285122,32.2258992 L135.972827,32.2258992 L135.972827,51.760171 L142.498381,51.760171 L142.498381,32.2258992 L148.169974,32.2258992 L148.169974,51.760171 L154.695528,51.760171 L154.695528,32.2258992 L160.383233,32.2258992 L160.383233,51.760171 L164.105216,51.760171 L164.105216,62.6324071 Z M172.080893,55.2379864 L166.60265,55.2379864 L166.60265,32.2258992 L172.290355,32.2258992 L172.290355,46.8522258 L181.893393,32.2258992 L187.371636,32.2258992 L187.371636,55.2379864 L181.683931,55.2379864 L181.683931,40.5954083 L172.080893,55.2379864 Z M205.917099,49.0786778 L211.604804,49.0786778 L211.604804,49.4524617 C211.604804,50.34088 211.142918,51.3917982 210.219131,52.6052476 C208.57565,54.7829561 205.772107,55.8717939 201.808417,55.8717939 C197.973628,55.8717939 195.073411,54.7233679 193.107678,52.4264814 C191.120463,50.1079262 190.12687,47.2585296 190.12687,43.8782061 C190.12687,40.6170606 191.109721,37.767664 193.075453,35.3299307 C195.062669,32.8380256 197.91992,31.5920917 201.647292,31.5920917 C208.382342,31.5920917 211.749817,35.3786473 211.749817,42.9518721 L211.749817,44.3657503 L195.766237,44.3657503 C195.787721,45.5791998 195.932732,46.659912 196.201274,47.6079194 C196.469817,48.5559268 196.867254,49.3549496 197.393598,50.0050118 C198.661119,51.5976642 200.240126,52.3939785 202.130667,52.3939785 C203.065195,52.3939785 203.951373,52.1827114 204.789226,51.760171 C205.541145,51.3918024 205.917099,50.6225737 205.917099,49.4524617 L205.917099,49.0786778 Z M206.223236,41.1967129 L206.223236,40.9204378 C206.223236,38.9810855 205.766721,37.5672214 204.853676,36.6788031 C203.790247,35.6062004 202.587194,35.0699071 201.24448,35.0699071 C200.062893,35.0699071 198.902806,35.7362109 197.764185,37.0688384 C197.366742,37.523882 197.023012,38.1062207 196.732986,38.8158719 C196.44296,39.5255232 196.206646,40.3191289 196.024037,41.1967129 L206.223236,41.1967129 Z M226.58941,45.9137032 L226.468566,46.3199901 L226.106035,46.8075343 L225.401115,46.7262769 L225.038584,46.3606187 L224.837178,45.7511885 L224.958021,44.9386148 L224.514928,44.4916992 C224.313521,44.3562696 223.816725,44.2885558 223.024524,44.2885558 C222.890253,44.2885558 222.715702,44.3156413 222.500868,44.3698132 C222.232326,44.5865006 222.017495,44.7354709 221.856369,44.8167287 L221.574401,45.3042729 C221.681818,45.6834759 221.735526,46.0085021 221.735526,46.2793614 L221.936931,46.6450195 C222.474017,46.9835936 222.997667,47.5117612 223.507898,48.2295383 C224.058411,49.0285731 224.326949,49.705711 224.313522,50.2609725 L224.071835,50.8500884 L223.709304,51.1344892 L223.628742,51.5814048 C223.293063,51.8251781 223.09166,52.2314609 223.024524,52.8002653 L222.541149,53.0846661 L222.380025,53.490953 C222.245753,53.5857537 222.057776,53.7482668 221.816088,53.9784972 L221.252151,53.8972398 C220.849337,54.0326695 220.406248,54.3441529 219.922872,54.8316996 C219.412641,54.9265003 218.982979,55.1296417 218.633873,55.4411299 C218.043079,55.4953017 217.586564,55.5223872 217.264313,55.5223872 C217.412011,55.5223872 217.109905,55.4546734 216.357986,55.3192438 C215.834327,55.2244431 215.485227,55.1431865 215.310674,55.0754717 C215.055559,54.9942139 214.719886,54.818158 214.303645,54.5472988 C214.021675,54.1274669 213.686001,53.7482697 213.296615,53.4096956 C213.189198,53.1388364 213.13549,52.7325536 213.13549,52.1908351 C213.269761,51.6220306 213.36375,51.2834616 213.417458,51.1751179 L213.739708,50.7891454 L213.900833,50.1390865 L214.061957,50.1390865 L214.14252,49.5296562 L214.746738,49.0827406 L215.189831,49.0827406 C215.243539,49.0827406 215.471797,49.1233689 215.874611,49.2046267 C216.505686,49.461943 216.935348,50.0239675 217.16361,50.8907171 L217.083047,51.3782614 L217.224031,51.9470629 L217.083047,52.5158645 L216.559392,53.2471809 L216.116298,53.2471809 L215.794049,52.6377506 L215.713486,52.0283203 L215.431518,51.6626621 L215.028706,51.6626621 L214.625894,51.9064343 C214.478196,52.4075239 214.424488,52.8815205 214.464769,53.3284382 L215.14955,53.9784972 C215.995459,54.2222705 216.639952,54.3441554 217.083047,54.3441554 C217.203891,54.3441554 217.378441,54.337384 217.606703,54.323841 C217.834964,54.3102981 218.002801,54.3035267 218.110218,54.3035267 C218.351906,54.2087259 218.637228,53.9852704 218.966193,53.6331534 C219.295158,53.2810363 219.573767,53.0575808 219.802028,52.9627801 C219.828882,52.8815223 219.936298,52.6512954 220.124278,52.2720924 L220.083996,51.7845482 L220.446527,51.4595187 L220.245121,51.0126032 L220.365965,50.6672594 L220.083996,50.4234872 L219.479778,50.2609725 C219.399216,50.1390858 219.278373,49.9427158 219.117248,49.6718566 C218.956122,49.4009973 218.83528,49.2046273 218.754717,49.0827406 L218.593592,49.0827406 L218.472748,48.9608546 C218.284769,48.3649642 218.110219,47.8638821 217.949093,47.4575932 C217.949093,47.173191 217.989374,46.8887931 218.069937,46.6043908 C218.284771,46.3470746 218.526455,45.98142 218.794998,45.5074163 L218.835279,44.9386148 L219.19781,44.654214 L219.318654,44.2072984 L219.479778,44.2072984 L219.761747,43.9228976 C220.097425,43.8551828 220.594222,43.6791269 221.252151,43.3947247 C222.057779,43.2592951 222.554576,43.1915813 222.742555,43.1915813 C223.118515,43.1915813 223.655592,43.2457523 224.353803,43.354096 C224.608919,43.5030686 224.9983,43.70621 225.521958,43.9635263 C225.790501,44.2479285 226.106034,44.6271258 226.468566,45.1011295 L226.58941,45.9137032 Z M236.67985,36.4675339 L236.397881,36.711306 C236.317319,37.3071964 236.115915,37.7134792 235.793664,37.9301666 L235.793664,38.3364534 L235.471414,38.7021116 L235.310289,39.2709132 L234.786634,39.3927992 C234.732925,39.8126311 234.598656,40.1512001 234.383822,40.4085164 C234.088425,40.5845749 233.819886,40.8148018 233.578198,41.099204 L233.054542,41.2617187 L232.692011,40.4085164 C232.718866,40.1105712 232.732292,39.6636601 232.732292,39.0677698 C233.094825,38.4718794 233.188814,37.8489124 233.014261,37.1988502 C233.202241,36.7248465 233.443926,36.3185638 233.739322,35.9799897 L234.464384,35.6955889 L234.625509,35.5330741 C234.840343,35.4247304 235.068601,35.3705594 235.310289,35.3705594 L235.954788,35.3705594 C236.250185,35.505989 236.49187,35.7091304 236.67985,35.9799897 L236.67985,36.4675339 Z M234.706071,52.0283203 C234.732925,52.2585507 234.638937,52.5971197 234.424103,53.0440374 L234.142134,53.2065522 L233.98101,53.490953 L233.819885,53.490953 L233.537916,53.8159825 L232.933698,53.9378685 C232.893417,54.0326693 232.806142,54.1680968 232.671871,54.3441554 C232.537599,54.5202139 232.450324,54.6556415 232.410043,54.7504422 L231.926669,55.1161004 L231.322451,55.2786151 L231.201607,55.4411299 L230.597389,55.5630159 L230.436264,55.7255307 L229.691062,55.4411299 C229.086841,55.4953017 228.496056,55.3869596 227.918689,55.1161004 L227.918689,54.9942143 C227.811272,54.8316988 227.717284,54.7233567 227.636721,54.6691848 L227.354753,54.5472988 C227.113064,54.113924 226.992222,53.6805557 226.992222,53.2471809 L227.193628,52.7596366 C227.408462,52.6106641 227.770989,52.0554109 228.28122,51.0938606 C228.616898,50.4708843 228.952572,49.8411459 229.28825,49.2046267 C229.315104,48.8795956 229.543362,48.1347438 229.97303,46.970049 L229.97303,46.6856482 L230.134155,46.5231335 L230.134155,46.3606187 L230.315421,46.3606187 L230.63767,45.7105598 L230.597389,45.0605008 L230.436264,44.8979861 C230.046877,44.938615 229.704491,45.0875853 229.409094,45.3449016 L229.409094,45.5074163 C228.872008,45.6699319 228.482627,45.8053595 228.240939,45.9137032 L227.918689,46.2387327 C227.650147,46.2793616 227.368181,46.3741609 227.072784,46.5231335 L226.750535,46.4825048 L226.468566,46.2387327 L226.388004,45.9137032 L226.468566,45.5074163 C226.938516,45.1282134 227.327897,44.9115292 227.636721,44.8573574 C228.066389,44.7760996 228.496051,44.6948431 228.925719,44.6135853 C229.100272,44.5323275 229.355384,44.4104427 229.691062,44.2479271 C230.483263,43.8958101 231.470142,43.7197542 232.65173,43.7197542 C232.678584,43.7197542 232.779286,43.7400683 232.953839,43.7806972 C233.128392,43.8213261 233.229094,43.8416403 233.255948,43.8416403 C233.497636,44.0854136 233.685613,44.3833543 233.819885,44.7354713 L233.98101,44.7354713 C234.088427,44.9115298 234.142134,45.2771844 234.142134,45.8324458 C234.142134,45.8866177 234.101854,46.1168446 234.021291,46.5231335 C233.927301,46.5908483 233.71247,46.834618 233.376792,47.2544498 L232.933698,47.4169645 L232.812855,47.8638801 L232.65173,47.8638801 L232.369762,48.1482809 C232.410043,48.5410268 232.356335,48.9879379 232.208637,49.4890275 L232.087793,49.4890275 C232.034085,49.8276016 231.926669,50.1255423 231.765544,50.3828586 L231.322451,50.7891454 C231.000199,51.8319535 230.852503,52.3939781 230.879357,52.4752358 L230.758514,52.4752358 C230.73166,52.7190092 230.664525,53.0711209 230.557108,53.5315817 L230.597389,54.0191259 C231.000203,53.99204 231.554064,53.7719701 232.258988,53.3589098 C232.963913,52.9458494 233.390218,52.556495 233.537916,52.1908351 L234.021291,51.9064343 L234.383822,51.8658056 L234.706071,52.0283203 Z M252.026986,32.7906379 L251.745018,32.9531526 L250.858831,32.9531526 C250.576862,32.8718949 250.442592,32.8312666 250.456019,32.8312666 C250.160623,32.8312666 249.784668,32.9396087 249.328146,33.1562961 C248.804488,33.3865264 248.42182,33.521954 248.180132,33.5625829 C247.978725,33.9417859 247.683332,34.35484 247.293945,34.8017578 C247.293945,34.9101015 247.300659,35.0726146 247.314086,35.289302 C247.327513,35.5059894 247.334227,35.6685026 247.334227,35.7768463 C247.159674,36.223764 246.904562,36.6165041 246.568884,36.9550781 L246.44804,38.5802255 L246.08551,39.0271411 L246.08551,40.0834869 C245.696123,40.4220609 245.441011,40.7741727 245.320167,41.1398327 L245.360448,41.749263 C245.132187,42.2774385 245.051625,42.6634072 245.118761,42.9071805 C244.823364,43.2999264 244.608533,43.6520382 244.474262,43.9635263 C244.447407,44.2072996 244.346705,44.7286959 244.172153,45.5277307 C244.011027,46.2455077 243.937179,46.6585619 243.950606,46.7669056 C243.682063,46.983593 243.467232,47.1325633 243.306107,47.2138211 L243.507513,47.6607367 L243.185263,47.9451375 C243.091273,48.107653 242.983858,48.4326792 242.863014,48.9202259 L242.460202,49.4077701 C242.379639,50.2203479 242.339358,50.6266307 242.339358,50.6266307 L242.017109,51.2157466 C242.017109,52.1231251 241.681435,52.8138059 241.010079,53.2878096 L240.405861,53.4503243 C240.083609,53.7618124 239.633807,54.1545525 239.056441,54.6285562 C238.492501,54.8452436 237.955424,54.9942139 237.445193,55.0754717 C237.149796,54.8994132 236.720134,54.8452421 236.156194,54.912957 L235.833945,54.7910709 L235.108883,54.0191259 L235.108883,53.4503243 L235.713101,53.0034088 L235.99507,53.0034088 L236.277038,53.2878096 L237.002099,53.612839 C237.270642,53.4909524 237.555964,53.2742682 237.858075,52.9627801 C238.160185,52.6512919 238.41194,52.4481505 238.613347,52.3533498 C238.69391,52.1231194 238.801326,51.7710077 238.935597,51.297004 C238.935597,50.7552855 239.029585,49.9901196 239.217565,49.0014833 L239.37869,49.0014833 L239.37869,48.6764538 L239.660659,48.1076522 L239.660659,47.3357072 L240.123892,46.7669056 C240.379008,45.4667812 240.768389,44.572959 241.292047,44.0854124 C241.318901,43.7739242 241.600867,42.7785314 242.137952,41.099204 C242.164806,40.8283448 242.245368,40.4356047 242.379639,39.9209721 C242.661609,39.5011403 243.024136,38.8510878 243.467232,37.9707953 L243.346388,37.4019937 L243.507513,36.6706773 L244.07145,36.5081626 L244.232574,36.2237618 L244.232574,35.6549602 L244.514543,35.4924455 L244.957636,34.4360996 C245.293314,34.0433537 245.803538,33.5355002 246.488322,32.912524 L246.971696,32.9531526 L247.334227,32.5062371 L247.616195,32.5062371 C247.884738,32.2218349 248.361394,31.991608 249.046178,31.8155495 C249.838378,31.625948 250.348602,31.4634349 250.576863,31.3280052 C251.019958,31.4363489 251.355632,31.4769772 251.583893,31.4498913 L252.026986,32.0593216 L252.026986,32.7906379 Z M257.626073,46.6856482 L257.464948,46.848163 L257.424667,47.2950785 L257.585791,47.7013653 L257.424667,48.1889096 L257.505229,48.7983398 C257.169551,49.5296598 256.833877,50.0171992 256.498199,50.2609725 C256.471345,50.2609725 256.370643,50.2812866 256.19609,50.3219155 C256.021537,50.3625444 255.920835,50.3828586 255.893981,50.3828586 C255.867127,50.3828586 255.571734,50.3422303 255.007795,50.2609725 L254.725826,50.0984578 C254.403575,50.1390867 253.681878,50.0544444 252.560712,49.8445285 C251.439546,49.6346126 250.684282,49.4483996 250.294895,49.2858841 L249.79138,49.5296562 C249.751098,49.597371 249.620186,49.9562541 249.398638,50.6063163 C249.17709,51.2563785 249.066318,51.6084903 249.066318,51.6626621 C249.066318,51.7845488 249.073032,51.9606047 249.086459,52.1908351 C249.099886,52.4210654 249.106599,52.5971213 249.106599,52.719008 L249.710817,53.9784972 C250.086777,54.1139268 250.308321,54.1816406 250.375457,54.1816406 C250.415738,54.1816406 250.456019,54.1748692 250.496301,54.1613263 C250.536582,54.1477833 250.576863,54.1410119 250.617144,54.1410119 L251.82558,54.262898 C252.134404,54.1816402 252.483504,54.0191271 252.872891,53.7753538 C253.356268,53.4638656 253.678515,53.274267 253.83964,53.2065522 L254.121608,53.1659235 C254.430433,52.9356931 254.672117,52.6512952 254.84667,52.3127211 L255.692575,52.068949 L255.8537,52.5158645 C255.786564,52.8544386 255.088364,53.6940897 253.759078,55.034843 C253.315982,55.2515304 252.69163,55.3937294 251.886002,55.4614442 C250.999811,55.529159 250.375459,55.6307297 250.012926,55.7661593 L249.106599,55.6036446 L248.985756,55.4817585 L248.260694,55.3192438 C247.57591,54.8587831 246.931418,54.073303 246.327197,52.9627801 C246.300342,52.637749 246.233208,52.2450089 246.125791,51.7845482 C246.192926,51.5407749 246.286915,51.0329214 246.407759,50.2609725 L246.568884,50.0984578 L246.488322,49.9765717 L246.77029,49.6921709 L246.931415,49.0827406 C247.159676,48.933768 247.347653,48.6358273 247.495351,48.1889096 L247.495351,46.848163 L247.817601,46.7262769 L248.099569,45.6699311 C249.07975,44.5187793 250.120337,43.7739275 251.221362,43.4353534 C251.288498,43.4353534 251.3892,43.4421248 251.523471,43.4556677 C251.657743,43.4692107 251.758445,43.4759821 251.82558,43.4759821 C252.214967,43.3676384 252.402944,43.3134673 252.389517,43.3134673 L252.872891,43.5166108 C253.034017,43.4895248 253.262275,43.4218111 253.557672,43.3134673 C253.759079,43.3270103 254.054471,43.4014955 254.443858,43.5369251 C254.833245,43.6723547 255.128637,43.7468399 255.330044,43.7603829 L255.732856,44.2072984 L256.135668,44.3698132 L256.337074,44.654214 L256.901011,44.8979861 L257.223261,45.2636442 C257.290396,45.4126168 257.357531,45.6496151 257.424667,45.9746462 C257.491802,46.2996773 257.558937,46.5366756 257.626073,46.6856482 L257.626073,46.6856482 Z M255.330044,47.1731924 L255.16892,47.0106777 C255.16892,46.523131 255.155493,46.1574765 255.128638,45.9137032 C254.967513,45.5886721 254.457289,45.08759 253.597953,44.4104418 C253.087722,44.4104418 252.429802,44.572955 251.624174,44.8979861 L251.422768,45.2230156 L251.060237,45.4667877 L250.899113,45.8324458 L250.778269,45.9543319 L250.778269,46.2793614 L250.536582,46.4825048 C250.456019,46.6450203 250.388884,46.9158755 250.335176,47.2950785 L250.174051,47.2950785 L250.13377,47.6607367 L250.254614,48.1482809 C251.087096,48.5816557 252.577485,48.8525109 254.725826,48.9608546 C254.833244,48.5410227 254.98094,48.2837103 255.16892,48.1889096 L255.330044,47.1731924 Z M273.859395,45.2230156 L273.738552,45.3855303 L273.738552,46.137161 L273.577427,46.2996757 L273.255177,47.0513064 L273.376021,47.3357072 L273.214896,47.4982219 C273.174615,47.8097101 273.073913,48.2430784 272.912787,48.7983398 L272.99335,49.0014833 C272.724807,49.3671433 272.409274,49.915625 272.046741,50.646945 C271.670782,51.4459798 271.482805,52.0080043 271.482805,52.3330355 L271.180696,52.779951 L271.261258,53.3690669 C271.852052,52.9356921 272.295141,52.5090952 272.590538,52.0892633 L273.114193,51.8658056 L273.738552,52.0283203 C273.684843,52.3127225 273.436445,52.7190053 272.99335,53.2471809 C272.483119,53.8566142 272.154159,54.3102966 272.00646,54.6082418 L271.724492,54.7910709 L271.724492,54.912957 L270.737603,55.5427016 C270.294507,55.5020727 269.784284,55.2515316 269.206917,54.7910709 C269.139781,54.6691842 268.985372,54.5134425 268.743683,54.323841 L268.542277,53.8769255 L268.542277,53.4096956 L268.381152,53.1252948 L268.501996,52.779951 C268.475142,52.4820058 268.461715,52.3330355 268.461715,52.3330355 C268.461715,51.764231 268.747037,50.9618225 269.31769,49.9257859 C269.888343,48.8897492 270.153525,47.9722272 270.113244,47.1731924 C270.381787,46.6856458 270.576477,46.0897644 270.697321,45.3855303 L270.274369,45.2230156 L270.113244,45.3855303 L270.113244,45.5074163 L269.206917,46.137161 L269.206917,46.2996757 L268.62284,46.4215618 L268.62284,46.5840765 C268.179744,46.7330491 267.877638,46.9294191 267.716513,47.1731924 L267.716513,47.4982219 C267.54196,47.6201086 267.186146,47.7216793 266.649061,47.8029371 L266.649061,48.0873379 L266.367093,48.0873379 L266.226108,48.2498526 L266.064984,48.2498526 L265.903859,48.5342534 L265.903859,48.8795972 L265.460766,49.0014833 L265.460766,49.2858841 L265.239219,49.7531139 L265.198938,50.4641159 C265.024385,50.7214322 264.863262,51.1378721 264.715563,51.713448 C264.567865,52.2890239 264.413455,52.7054638 264.25233,52.9627801 C263.997214,53.1252956 263.735389,53.416465 263.466846,53.8362968 C263.158022,54.3238435 262.923051,54.6420983 262.761925,54.7910709 C262.278549,54.8994146 261.540067,55.0619277 260.54646,55.2786151 L260.042945,55.0754717 L259.338024,55.2786151 L258.572681,54.7504422 L258.230291,53.9581829 L258.391415,53.2471809 L258.854649,53.0846661 C259.27089,53.2878106 259.613277,53.4774092 259.88182,53.6534677 L260.627022,53.5315817 L261.130537,53.2065522 L261.25138,52.3330355 L261.412505,52.2111494 C261.399078,51.7236027 261.452786,51.2902344 261.57363,50.9110315 C261.775037,50.5318285 262.063716,49.9494899 262.439676,49.163998 C262.573947,48.5139358 262.876053,47.5591712 263.346003,46.2996757 L263.225159,45.8324458 L263.346003,45.5074163 L263.064034,45.2230156 L262.600801,45.3855303 L262.600801,45.5074163 L261.996583,45.6699311 L261.57363,45.9543319 C260.969409,46.0491326 260.459186,46.1642461 260.042945,46.2996757 L259.297742,45.9543319 L259.136618,45.5074163 L259.297742,45.2230156 C260.721018,45.2501015 262.224835,44.7896476 263.809237,43.8416403 L264.131486,43.8416403 L265.118375,43.1306383 L265.62189,43.0493809 L266.064984,43.2525243 C266.655777,43.8619576 266.904176,44.3630398 266.810186,44.7557857 L266.528217,44.9183004 L266.528217,45.2230156 L266.226108,45.6699311 C266.252963,45.7782748 266.226109,45.9746448 266.145546,46.259047 L266.226108,46.5840765 L266.528217,46.7465912 C267.038448,46.5705327 267.588953,46.2658206 268.179746,45.8324458 L268.179746,45.6699311 L268.340871,45.6699311 L268.743683,45.3855303 L268.924949,45.3855303 L269.368042,45.0401865 L269.529167,44.7557857 L270.113244,44.6338996 L270.113244,44.4713849 C270.516058,44.2546975 270.871872,44.0989557 271.180696,44.004155 L271.301539,43.8416403 L271.643929,43.8416403 C272.046743,43.6791247 272.348849,43.4827547 272.550256,43.2525243 L272.99335,43.2525243 L273.114193,43.5572395 L273.295459,43.5572395 C273.52372,43.8416417 273.711697,44.2411531 273.859395,44.7557857 L273.859395,45.2230156 Z M289.125969,44.8167287 L289.085688,45.2230156 C288.897708,45.6022185 288.682877,45.913702 288.441189,46.1574753 L287.011206,46.2793614 C286.312996,45.9001584 285.802772,45.6022177 285.480521,45.3855303 C285.104561,45.4397021 284.795742,45.4667877 284.554053,45.4667877 C284.473491,45.4667877 284.352648,45.4464735 284.191523,45.4058446 C284.030397,45.3652157 283.909555,45.3449016 283.828992,45.3449016 C283.802138,45.3449016 283.466464,45.3855299 282.821962,45.4667877 L282.056619,45.9543319 C282.016338,46.1303904 281.935776,46.2793608 281.814932,46.4012474 C281.653806,46.8481652 281.358414,47.5117604 280.928746,48.392053 L280.928746,48.7983398 L280.485652,49.0827406 L280.525934,49.4077701 L280.324528,49.7734283 L280.002278,49.935943 L280.002278,50.0984578 L279.559185,50.6672594 C279.438341,51.1818919 279.391346,51.5407751 279.418201,51.7439195 L279.72031,51.7439195 C279.572611,52.3262669 279.518903,52.8679773 279.559185,53.3690669 L279.72031,53.6534677 C279.8143,53.7211825 280.1634,53.8701529 280.767621,54.1003833 C281.224143,54.0732973 281.848496,53.9107842 282.640696,53.612839 C283.486606,53.3013509 284.043824,52.9898674 284.312366,52.6783793 L284.473491,52.1502064 L284.755459,51.7845482 L285.399959,51.41889 L285.963895,51.5001474 L286.165301,51.9064343 L286.487551,52.1908351 L286.487551,52.6377506 C285.937038,53.0304965 285.547657,53.3690655 285.319396,53.6534677 C284.862874,53.8430692 284.366077,54.0868389 283.828992,54.3847841 C283.493313,54.4389559 283.197921,54.547298 282.942805,54.7098135 L282.821962,54.7098135 L282.660837,54.9942143 L282.660837,55.0754717 L282.258025,55.0754717 L281.774651,55.4411299 L281.049589,55.4411299 C280.337951,55.4411299 279.700172,55.3463305 279.136232,55.1567291 L279.136232,54.8316996 L278.532014,54.3847841 C278.464879,54.1139248 278.37089,53.9243262 278.250046,53.8159825 C277.99493,53.5857521 277.605549,53.4096962 277.081891,53.2878096 C276.961047,52.9086066 276.759643,52.5564948 276.477673,52.2314637 C276.370256,51.8522608 276.316548,51.2902363 276.316548,50.5453733 C276.316548,50.1797133 276.440748,49.7226452 276.68915,49.1741552 C276.937551,48.6256652 277.202733,48.2430822 277.484703,48.0263948 L277.404141,47.8638801 L277.484703,47.5794793 L277.645828,47.5794793 L277.927796,46.970049 L277.927796,46.848163 L278.250046,46.4012474 L278.73342,46.198104 C278.813983,45.9001588 278.975106,45.6293036 279.216795,45.3855303 L279.800872,45.0605008 L280.042559,44.4510705 L280.606496,44.2885558 L280.807902,43.9635263 L281.331558,43.9635263 L282.0969,43.5572395 C282.553423,43.5301535 283.224769,43.4353542 284.11096,43.2728387 L285.319396,43.5572395 L285.601365,44.004155 C286.205585,44.1124987 286.662101,44.2885546 286.970925,44.5323279 C287.118624,44.5323279 287.340168,44.5255565 287.635565,44.5120136 C287.930962,44.4984706 288.15922,44.4916992 288.320345,44.4916992 C288.575461,44.4916992 288.844,44.6000413 289.125969,44.8167287 L289.125969,44.8167287 Z M300.304002,46.6856482 L300.142877,46.848163 L300.102596,47.2950785 L300.26372,47.7013653 L300.102596,48.1889096 L300.183158,48.7983398 C299.84748,49.5296598 299.511806,50.0171992 299.176128,50.2609725 C299.149274,50.2609725 299.048572,50.2812866 298.874019,50.3219155 C298.699466,50.3625444 298.598764,50.3828586 298.57191,50.3828586 C298.545056,50.3828586 298.249663,50.3422303 297.685724,50.2609725 L297.403755,50.0984578 C297.081504,50.1390867 296.359807,50.0544444 295.238641,49.8445285 C294.117475,49.6346126 293.362211,49.4483996 292.972824,49.2858841 L292.469309,49.5296562 C292.429027,49.597371 292.298115,49.9562541 292.076567,50.6063163 C291.855019,51.2563785 291.744247,51.6084903 291.744247,51.6626621 C291.744247,51.7845488 291.750961,51.9606047 291.764388,52.1908351 C291.777815,52.4210654 291.784528,52.5971213 291.784528,52.719008 L292.388746,53.9784972 C292.764706,54.1139268 292.98625,54.1816406 293.053386,54.1816406 C293.093667,54.1816406 293.133948,54.1748692 293.17423,54.1613263 C293.214511,54.1477833 293.254792,54.1410119 293.295073,54.1410119 L294.503509,54.262898 C294.812333,54.1816402 295.161433,54.0191271 295.55082,53.7753538 C296.034197,53.4638656 296.356443,53.274267 296.517569,53.2065522 L296.799537,53.1659235 C297.108362,52.9356931 297.350046,52.6512952 297.524599,52.3127211 L298.370504,52.068949 L298.531629,52.5158645 C298.464493,52.8544386 297.766293,53.6940897 296.437007,55.034843 C295.993911,55.2515304 295.369559,55.3937294 294.563931,55.4614442 C293.67774,55.529159 293.053388,55.6307297 292.690855,55.7661593 L291.784528,55.6036446 L291.663685,55.4817585 L290.938623,55.3192438 C290.253839,54.8587831 289.609347,54.073303 289.005126,52.9627801 C288.978271,52.637749 288.911137,52.2450089 288.80372,51.7845482 C288.870855,51.5407749 288.964844,51.0329214 289.085688,50.2609725 L289.246813,50.0984578 L289.166251,49.9765717 L289.448219,49.6921709 L289.609344,49.0827406 C289.837605,48.933768 290.025582,48.6358273 290.17328,48.1889096 L290.17328,46.848163 L290.49553,46.7262769 L290.777498,45.6699311 C291.757679,44.5187793 292.798266,43.7739275 293.899291,43.4353534 C293.966427,43.4353534 294.067129,43.4421248 294.2014,43.4556677 C294.335672,43.4692107 294.436374,43.4759821 294.503509,43.4759821 C294.892896,43.3676384 295.080873,43.3134673 295.067446,43.3134673 L295.55082,43.5166108 C295.711946,43.4895248 295.940204,43.4218111 296.235601,43.3134673 C296.437008,43.3270103 296.7324,43.4014955 297.121787,43.5369251 C297.511174,43.6723547 297.806566,43.7468399 298.007973,43.7603829 L298.410785,44.2072984 L298.813597,44.3698132 L299.015003,44.654214 L299.57894,44.8979861 L299.90119,45.2636442 C299.968325,45.4126168 300.03546,45.6496151 300.102596,45.9746462 C300.169731,46.2996773 300.236866,46.5366756 300.304002,46.6856482 L300.304002,46.6856482 Z M298.007973,47.1731924 L297.846849,47.0106777 C297.846849,46.523131 297.833422,46.1574765 297.806567,45.9137032 C297.645442,45.5886721 297.135218,45.08759 296.275882,44.4104418 C295.765651,44.4104418 295.107731,44.572955 294.302103,44.8979861 L294.100697,45.2230156 L293.738166,45.4667877 L293.577042,45.8324458 L293.456198,45.9543319 L293.456198,46.2793614 L293.214511,46.4825048 C293.133948,46.6450203 293.066813,46.9158755 293.013105,47.2950785 L292.85198,47.2950785 L292.811699,47.6607367 L292.932542,48.1482809 C293.765025,48.5816557 295.255414,48.8525109 297.403755,48.9608546 C297.511173,48.5410227 297.658869,48.2837103 297.846849,48.1889096 L298.007973,47.1731924 Z" id="Sleep-and-sile"></path>
                    <rect id="Rectangle-2" x="166.563136" y="32.0943396" width="5.89256378" height="12.2830189"></rect>
                    <g id="Group-2-Copy" transform="translate(309.556017, 7.528302)" fill-rule="nonzero">
                        <g id="Group-3" transform="translate(25.514638, 11.345580) rotate(12.000000) translate(-25.514638, -11.345580) translate(5.514638, 4.345580)">
                            <path d="M9.88197618,7.20949747 C11.7556387,4.63531652 15.1238031,4.09306329 16.6754043,6.36493688 C17.4285181,7.46765533 17.4911205,8.50818344 17.0298644,9.44210701 C16.67098,10.1687544 15.9870203,10.7668189 15.5313701,10.8814054 C13.9938912,11.268049 12.9608579,11.07643 12.5857773,9.97413886 C12.1778048,8.77518444 12.7487895,8.01763236 13.3180796,8.20323028 C13.6277425,8.30418544 13.9599142,8.13282889 14.0600059,7.82049471 C14.1600977,7.50816052 13.9902067,7.1731233 13.6805438,7.07216814 C12.0959065,6.55555041 10.7735279,8.31001182 11.4710883,10.3600104 C12.1137224,12.2485908 13.7553664,12.5531021 15.8164783,12.0347757 C16.6237811,11.831756 17.5786644,10.996792 18.0847372,9.97212631 C18.7351882,8.65513226 18.6448263,7.15320585 17.645935,5.69061696 C15.5665108,2.64589861 11.2339676,3.34341074 8.93198608,6.50604923 C6.26500729,10.1701489 3.50365386,12.3510677 0.877723465,12.0417026 C0.554483692,12.0036212 0.261839042,12.2370482 0.224083345,12.5630764 C0.186327649,12.8891046 0.417758219,13.1842738 0.740997992,13.2223552 C3.93904097,13.5991218 6.9784321,11.1986086 9.88197618,7.20949747 Z" id="Path-3"></path>
                            <path d="M29.7655256,6.34662306 C27.8918631,8.92080401 24.5236987,9.46305724 22.9720975,7.19118365 C22.2189837,6.0884652 22.1563813,5.04793708 22.6176374,4.11401352 C22.9765218,3.38736614 23.6604815,2.78930159 24.1161317,2.67471514 C25.6536106,2.28807152 26.6866439,2.47969056 27.0617245,3.58198167 C27.469697,4.78093609 26.8987123,5.53848817 26.3294222,5.35289025 C26.0197593,5.25193508 25.6875876,5.42329163 25.5874958,5.73562582 C25.4874041,6.04796 25.6572951,6.38299722 25.966958,6.48395239 C27.5515953,7.00057012 28.8739739,5.24610871 28.1764134,3.19611012 C27.5337794,1.3075297 25.8921354,1.00301847 23.8310235,1.52134479 C23.0237207,1.72436449 22.0688374,2.55932857 21.5627646,3.58399422 C20.9123136,4.90098827 21.0026755,6.40291468 22.0015668,7.86550357 C24.080991,10.9102219 28.4135342,10.2127098 30.7155157,7.0500713 C33.3824945,3.38597166 36.1438479,1.20505284 38.7697783,1.51441793 C39.0930181,1.55249932 39.3856628,1.31907231 39.4234184,0.993044093 C39.4611741,0.667015879 39.2297436,0.371846718 38.9065038,0.33376532 C35.7084608,-0.0430012702 32.6690697,2.35751192 29.7655256,6.34662306 Z" id="Path-3"></path>
                        </g>
                    </g>
                    <g id="Group-2-Copy-2" transform="translate(0.000000, 7.528302)" fill-rule="nonzero">
                        <g id="Group-3" transform="translate(25.514638, 11.345580) rotate(12.000000) translate(-25.514638, -11.345580) translate(5.514638, 4.345580)">
                            <path d="M9.88197618,7.20949747 C11.7556387,4.63531652 15.1238031,4.09306329 16.6754043,6.36493688 C17.4285181,7.46765533 17.4911205,8.50818344 17.0298644,9.44210701 C16.67098,10.1687544 15.9870203,10.7668189 15.5313701,10.8814054 C13.9938912,11.268049 12.9608579,11.07643 12.5857773,9.97413886 C12.1778048,8.77518444 12.7487895,8.01763236 13.3180796,8.20323028 C13.6277425,8.30418544 13.9599142,8.13282889 14.0600059,7.82049471 C14.1600977,7.50816052 13.9902067,7.1731233 13.6805438,7.07216814 C12.0959065,6.55555041 10.7735279,8.31001182 11.4710883,10.3600104 C12.1137224,12.2485908 13.7553664,12.5531021 15.8164783,12.0347757 C16.6237811,11.831756 17.5786644,10.996792 18.0847372,9.97212631 C18.7351882,8.65513226 18.6448263,7.15320585 17.645935,5.69061696 C15.5665108,2.64589861 11.2339676,3.34341074 8.93198608,6.50604923 C6.26500729,10.1701489 3.50365386,12.3510677 0.877723465,12.0417026 C0.554483692,12.0036212 0.261839042,12.2370482 0.224083345,12.5630764 C0.186327649,12.8891046 0.417758219,13.1842738 0.740997992,13.2223552 C3.93904097,13.5991218 6.9784321,11.1986086 9.88197618,7.20949747 Z" id="Path-3"></path>
                            <path d="M29.7655256,6.34662306 C27.8918631,8.92080401 24.5236987,9.46305724 22.9720975,7.19118365 C22.2189837,6.0884652 22.1563813,5.04793708 22.6176374,4.11401352 C22.9765218,3.38736614 23.6604815,2.78930159 24.1161317,2.67471514 C25.6536106,2.28807152 26.6866439,2.47969056 27.0617245,3.58198167 C27.469697,4.78093609 26.8987123,5.53848817 26.3294222,5.35289025 C26.0197593,5.25193508 25.6875876,5.42329163 25.5874958,5.73562582 C25.4874041,6.04796 25.6572951,6.38299722 25.966958,6.48395239 C27.5515953,7.00057012 28.8739739,5.24610871 28.1764134,3.19611012 C27.5337794,1.3075297 25.8921354,1.00301847 23.8310235,1.52134479 C23.0237207,1.72436449 22.0688374,2.55932857 21.5627646,3.58399422 C20.9123136,4.90098827 21.0026755,6.40291468 22.0015668,7.86550357 C24.080991,10.9102219 28.4135342,10.2127098 30.7155157,7.0500713 C33.3824945,3.38597166 36.1438479,1.20505284 38.7697783,1.51441793 C39.0930181,1.55249932 39.3856628,1.31907231 39.4234184,0.993044093 C39.4611741,0.667015879 39.2297436,0.371846718 38.9065038,0.33376532 C35.7084608,-0.0430012702 32.6690697,2.35751192 29.7655256,6.34662306 Z" id="Path-3"></path>
                        </g>
                    </g>
                </g>
            </g>
        </g>
    </g>
</svg>